<?xml version="1.0" encoding="UTF-8"?>
<svg id="Layer_1" xmlns="http://www.w3.org/2000/svg" version="1.1" viewBox="0 0 5935 1274.7">
  <!-- Generator: Adobe Illustrator 30.2.1, SVG Export Plug-In . SVG Version: 2.1.1 Build 1)  -->
  <defs>
    <style>
      .st0, .st1, .st2 {
        fill: #1a1a18;
      }

      .st1 {
        fill-rule: evenodd;
      }

      .st2 {
        font-family: Calibri, Calibri;
        font-size: 172.4px;
      }
    </style>
  </defs>
  <g>
    <path class="st0" d="M1972.6,653.8c1.6,4.6,2.4,8.3,2.5,11.1,0,2.8-.6,5-2.2,6.4-1.6,1.5-4.2,2.4-7.8,2.8-3.6.4-8.5.6-14.6.6s-10.9-.2-14.6-.5c-3.6-.3-6.4-.8-8.2-1.6-1.9-.7-3.2-1.7-4.1-3-.9-1.3-1.7-2.8-2.5-4.7l-32.7-98.6h-158.3l-31.2,97.4c-.6,1.9-1.4,3.5-2.4,4.9-1,1.4-2.4,2.5-4.3,3.4-1.9.9-4.5,1.6-7.9,2-3.4.4-7.9.6-13.4.6s-10.3-.3-14-.8c-3.6-.5-6.2-1.5-7.7-3-1.5-1.5-2.2-3.6-2.1-6.4,0-2.8.9-6.5,2.5-11.1l127.7-376.3c.8-2.3,1.8-4.2,3.1-5.6,1.3-1.5,3.1-2.6,5.6-3.4,2.5-.8,5.6-1.4,9.4-1.7,3.8-.3,8.7-.5,14.6-.5s11.5.2,15.6.5c4.1.3,7.5.9,10,1.7,2.5.8,4.5,2,5.9,3.6,1.4,1.6,2.4,3.5,3.2,5.8l127.7,376.3ZM1808.7,321.7h-.3l-65.6,201.9h132.4l-66.5-201.9Z"/>
    <path class="st0" d="M2376.9,559.3c0,19-3.3,35.9-9.9,50.7-6.6,14.8-15.7,27.4-27.4,37.7-11.7,10.3-25.4,18.1-41.2,23.3-15.8,5.2-32.8,7.8-51.1,7.8s-24.6-1.1-35.5-3.4c-10.9-2.3-20.6-5.1-29.1-8.5-8.5-3.3-15.7-6.8-21.5-10.3-5.8-3.5-9.8-6.6-12.1-9.1-2.3-2.5-3.9-5.7-5-9.5-1.1-3.9-1.6-9-1.6-15.5s.2-8.4.6-11.4c.4-3,1-5.5,1.8-7.4.8-1.9,1.8-3.2,2.9-3.9,1.2-.7,2.5-1.1,4.1-1.1,2.7,0,6.6,1.8,11.6,5.3,5,3.6,11.4,7.4,19.3,11.6,7.8,4.2,17.3,8.1,28.4,11.7,11.1,3.7,23.9,5.5,38.4,5.5s21-1.6,30.2-4.7c9.1-3.1,17-7.6,23.5-13.3,6.6-5.7,11.6-12.8,15.2-21.1,3.5-8.3,5.3-17.8,5.3-28.5s-2.5-21.3-7.4-29.4c-4.9-8.1-11.4-15.3-19.4-21.4-8-6.2-17.2-11.8-27.5-16.9-10.3-5.1-20.8-10.3-31.6-15.7-10.8-5.3-21.3-11.2-31.5-17.7-10.2-6.5-19.3-14.1-27.4-22.9-8-8.8-14.6-19-19.6-30.8-5-11.8-7.5-25.9-7.5-42.4s2.9-32,8.7-45.2c5.8-13.2,13.8-24.4,24.1-33.3,10.3-9,22.6-15.8,36.8-20.5,14.2-4.7,29.6-7,46.1-7s16.9.8,25.5,2.3,16.6,3.7,24.1,6.3c7.6,2.6,14.3,5.5,20.2,8.8,5.9,3.2,9.8,5.8,11.6,7.8,1.9,2,3.1,3.6,3.7,4.7.6,1.1,1.1,2.6,1.5,4.4.4,1.8.7,3.9.9,6.4.2,2.5.3,5.7.3,9.7s-.1,7.1-.4,10c-.3,2.9-.7,5.4-1.3,7.4-.6,2-1.4,3.4-2.5,4.4-1.1.9-2.3,1.4-3.7,1.4-2.2,0-5.5-1.5-10.2-4.4-4.6-2.9-10.3-6.2-16.9-9.9-6.7-3.6-14.6-7-23.7-10-9.1-3-19.4-4.5-30.8-4.5s-19.8,1.5-27.7,4.5c-7.8,3-14.3,7-19.4,12.1-5.1,5-8.9,11-11.5,17.8-2.6,6.9-3.8,14.2-3.8,21.9,0,11.3,2.5,21,7.4,29.1,4.9,8.1,11.4,15.3,19.6,21.6,8.1,6.3,17.4,12,27.8,17.2,10.4,5.2,21,10.5,31.8,15.8,10.8,5.3,21.4,11.2,31.8,17.5,10.4,6.4,19.7,13.9,27.8,22.5,8.1,8.7,14.7,18.9,19.7,30.7,5,11.8,7.5,25.7,7.5,41.8Z"/>
    <path class="st0" d="M2670.6,776.8c0,1.7-.4,3.1-1.3,4.4-.9,1.3-2.2,2.3-4,3.1-1.8.8-4.2,1.5-7.4,1.9-3.1.4-7.1.6-11.8.6s-8.9-.2-11.9-.6c-3-.4-5.5-1-7.5-1.9-2-.8-3.3-1.9-4-3.1-.7-1.3-1-2.7-1-4.4v-144.3c-8,8.6-15.7,15.8-23,21.8-7.3,5.9-14.4,10.8-21.5,14.4-7.1,3.7-14.2,6.3-21.3,7.8-7.2,1.6-14.6,2.3-22.2,2.3-19.2,0-35.6-4-49.1-12.1-13.5-8-24.6-18.9-33.1-32.6-8.5-13.7-14.8-29.7-18.7-48.2-3.9-18.5-5.9-37.9-5.9-58.4s2.5-46.1,7.4-65.6c4.9-19.5,12.2-36.2,21.9-49.9,9.7-13.8,21.7-24.4,35.9-31.8,14.2-7.4,30.6-11.1,49.3-11.1s15.2.9,22.1,2.7c6.9,1.8,13.7,4.6,20.5,8.5,6.8,3.9,13.6,8.9,20.6,15,7,6.2,14.6,13.5,22.8,22.1v-34.1c0-1.9.4-3.4,1.2-4.5.8-1.1,2.1-2.1,3.8-3,1.8-.8,4-1.4,6.8-1.7,2.7-.3,6.2-.5,10.3-.5s7.3.2,10,.5c2.7.3,5,.9,6.6,1.7,1.7.8,2.8,1.8,3.5,3,.7,1.1,1,2.7,1,4.5v393.5ZM2621.7,466.9c-13.1-17.3-25.8-30.5-38.1-39.6-12.3-9.1-25.1-13.6-38.4-13.6s-22.9,3.1-31.5,9.4c-8.6,6.3-15.6,14.5-21,24.7-5.4,10.2-9.3,21.8-11.8,34.7-2.5,12.9-3.7,26.1-3.7,39.4s1,28.4,3.1,41.9c2.1,13.6,5.6,25.6,10.7,36,5.1,10.4,11.9,18.8,20.3,25.2,8.4,6.4,19,9.5,31.8,9.5s12.7-.9,18.7-2.8c6-1.9,12.1-5,18.4-9.4,6.3-4.4,12.8-10.1,19.7-17.1,6.9-7,14.1-15.6,21.8-25.8v-112.7Z"/>
    <path class="st0" d="M2987.1,665.1c0,1.7-.3,3.1-1,4.2-.7,1.1-1.9,2.1-3.7,3-1.8.8-4.1,1.5-6.9,1.9-2.8.4-6.3.6-10.4.6s-8.2-.2-11-.6c-2.8-.4-5.1-1-6.8-1.9-1.7-.8-2.8-1.8-3.4-3-.6-1.1-.9-2.6-.9-4.2v-37.3c-15.1,17.7-30,30.7-44.7,38.8-14.7,8.1-29.6,12.2-44.7,12.2s-32.5-3.1-44.6-9.4c-12.1-6.3-21.8-14.8-29.3-25.5-7.5-10.7-12.8-23.3-16-37.6-3.2-14.3-4.9-31.7-4.9-52.1v-170.9c0-1.7.3-3.1,1-4.2.7-1.1,2-2.2,4-3.1,2-.9,4.5-1.6,7.7-1.9,3.1-.3,7.1-.5,11.8-.5s8.6.2,11.8.5c3.1.3,5.6.9,7.5,1.9,1.9.9,3.2,2,4,3.1.8,1.1,1.2,2.6,1.2,4.2v164c0,16.5,1.1,29.7,3.4,39.6,2.3,9.9,5.7,18.4,10.3,25.4,4.6,7,10.4,12.4,17.5,16.3,7.1,3.9,15.3,5.8,24.7,5.8s24.3-4.6,36.3-13.8c12.1-9.2,24.9-22.6,38.4-40.4v-196.9c0-1.7.3-3.1,1-4.2.7-1.1,2-2.2,4-3.1,2-.9,4.5-1.6,7.5-1.9,3-.3,7-.5,11.9-.5s8.6.2,11.8.5c3.1.3,5.6.9,7.4,1.9,1.8.9,3.1,2,4,3.1.9,1.1,1.3,2.6,1.3,4.2v281.7Z"/>
    <g>
      <path class="st0" d="M3276.4,665.4c0,2.5-.8,4.4-2.4,5.6-1.6,1.3-3.7,2.2-6.5,2.8-2.7.6-6.8.9-12.1.9s-9.2-.3-12.2-.9c-3-.6-5.3-1.6-6.6-2.8-1.4-1.3-2.1-3.1-2.1-5.6v-28.2c-11.6,13.1-24.5,23.4-38.7,30.7-14.2,7.3-29.3,11-45.2,11s-26.5-1.9-37.8-5.8c-11.3-3.9-20.9-9.4-28.8-16.7-7.9-7.3-14.1-16.3-18.5-26.9-4.4-10.6-6.6-22.7-6.6-36.3s3-29.6,9.1-41.3c6.1-11.7,14.8-21.4,26.2-29.1,11.4-7.7,25.3-13.5,41.8-17.4,16.5-3.9,35-5.8,55.6-5.8h36.5v-21.9c0-10.8-1.1-20.5-3.2-28.8-2.2-8.3-5.6-15.3-10.4-20.8-4.8-5.5-11-9.7-18.7-12.5-7.7-2.8-17.1-4.2-28.3-4.2s-22.7,1.5-32.2,4.5c-9.5,3-17.9,6.4-25,10-7.2,3.7-13.1,7-18,10-4.8,3-8.4,4.5-10.7,4.5s-2.9-.4-4.1-1.3c-1.2-.8-2.2-2.1-3.1-3.8-.9-1.7-1.5-3.8-1.9-6.4-.4-2.6-.6-5.5-.6-8.6,0-5.2.3-9.3,1-12.4.7-3,2.4-5.9,5-8.6,2.6-2.7,7.2-5.9,13.7-9.5,6.5-3.6,13.9-7,22.4-10,8.4-3,17.7-5.5,27.7-7.5,10-2,20.1-3,30.3-3,19,0,35.2,2.3,48.6,6.9,13.3,4.6,24.1,11.3,32.4,20.2,8.2,8.9,14.2,19.9,18,33,3.7,13.1,5.6,28.5,5.6,46v190ZM3228.1,536.7h-41.5c-13.3,0-24.9,1.2-34.7,3.6-9.8,2.4-18,5.9-24.4,10.6-6.5,4.7-11.2,10.3-14.3,16.9-3,6.6-4.6,14.1-4.6,22.7,0,14.6,4.4,26.2,13.1,34.9,8.7,8.7,20.9,13,36.6,13s24.6-3.4,35.5-10.3c10.9-6.9,22.3-17.4,34.3-31.6v-59.8Z"/>
      <path class="st0" d="M3520.3,401.8c0,4.6-.1,8.5-.3,11.6-.2,3.1-.6,5.6-1.2,7.4-.6,1.8-1.3,3.1-2.2,4.1-.9.9-2.1,1.4-3.7,1.4s-3.5-.5-5.7-1.4c-2.3-.9-4.8-1.9-7.7-2.8-2.8-.9-6-1.8-9.6-2.7-3.5-.8-7.4-1.3-11.5-1.3s-9.7,1-14.4,3.1c-4.7,2.1-9.7,5.5-14.9,10.3-5.2,4.8-10.6,11.2-16.3,19.1-5.7,7.9-12,17.6-18.8,29.1v185.3c0,1.7-.4,3.1-1.2,4.2-.8,1.1-2.1,2.1-3.8,3-1.8.8-4.2,1.5-7.4,1.9-3.1.4-7.2.6-12.1.6s-8.6-.2-11.8-.6c-3.1-.4-5.6-1-7.5-1.9-1.9-.8-3.1-1.8-3.8-3-.7-1.1-1-2.6-1-4.2v-281.7c0-1.7.3-3.1.9-4.2.6-1.1,1.8-2.2,3.5-3.1,1.8-.9,4-1.6,6.8-1.9,2.7-.3,6.4-.5,10.9-.5s7.9.2,10.7.5c2.8.3,5,.9,6.6,1.9,1.6.9,2.7,2,3.4,3.1.7,1.1,1,2.6,1,4.2v41c7.3-11.3,14.1-20.4,20.5-27.5,6.4-7.1,12.4-12.7,18.1-16.7,5.7-4.1,11.3-6.9,16.9-8.5,5.6-1.6,11.2-2.3,16.9-2.3s5.4.2,8.7.5,6.6.9,10.2,1.7c3.5.8,6.7,1.8,9.6,2.8,2.8,1,4.9,2.1,6,3.1,1.2,1,2,2,2.4,3,.4.9.7,2.1,1,3.6.3,1.5.5,3.6.6,6.4,0,2.8.1,6.6.1,11.4Z"/>
    </g>
    <path class="st0" d="M3793.7,512c0,8.1-1.9,13.9-5.8,17.4-3.8,3.4-8.2,5.2-13.2,5.2h-174.4c0,15.7,1.5,29.7,4.4,42.3,3,12.5,7.9,23.3,14.8,32.2,6.9,9,15.9,15.9,26.9,20.7,11,4.8,24.5,7.2,40.5,7.2s23.8-1.1,33.7-3.3c9.9-2.2,18.4-4.6,25.6-7.4,7.2-2.7,13.1-5.2,17.7-7.4,4.6-2.2,8.1-3.3,10.5-3.3s2.6.4,3.7,1.1c1.1.7,1.9,1.8,2.5,3.3.6,1.5,1,3.5,1.3,6.1.3,2.6.4,5.8.4,9.5s-.1,5.1-.3,7c-.2,2-.4,3.8-.7,5.3-.3,1.6-.8,3-1.5,4.2-.7,1.3-1.6,2.5-2.6,3.6-1.1,1.1-4.3,3-9.6,5.6-5.3,2.6-12.2,5.2-20.6,7.7-8.4,2.5-18.2,4.7-29.3,6.7-11.1,2-22.9,3-35.5,3-21.8,0-40.9-3.2-57.2-9.7-16.4-6.5-30.2-16.1-41.3-28.8-11.2-12.7-19.6-28.7-25.3-47.9-5.7-19.2-8.5-41.5-8.5-67s2.9-46,8.8-65.3c5.9-19.3,14.4-35.7,25.5-49.2,11.1-13.5,24.5-23.8,40.2-31,15.7-7.2,33.3-10.8,52.7-10.8s38.5,3.6,53.1,10.6c14.6,7.1,26.6,16.6,36,28.6,9.4,12,16.3,26.1,20.7,42.3,4.4,16.2,6.6,33.4,6.6,51.8v9.4ZM3744.9,496.7c.6-27.1-5.1-48.4-17-63.9-11.9-15.4-29.7-23.2-53.1-23.2s-22.6,2.4-31.7,7.2c-9.1,4.8-16.7,11.2-22.8,19.1-6.1,7.9-10.9,17.2-14.2,27.7-3.4,10.5-5.2,21.6-5.6,33h144.5Z"/>
    <path class="st0" d="M4213.9,559.3c0,19-3.3,35.9-9.9,50.7-6.6,14.8-15.7,27.4-27.4,37.7-11.7,10.3-25.4,18.1-41.2,23.3-15.8,5.2-32.8,7.8-51.1,7.8s-24.6-1.1-35.5-3.4c-10.9-2.3-20.6-5.1-29.1-8.5-8.5-3.3-15.7-6.8-21.5-10.3-5.8-3.5-9.8-6.6-12.1-9.1-2.3-2.5-3.9-5.7-5-9.5-1.1-3.9-1.6-9-1.6-15.5s.2-8.4.6-11.4c.4-3,1-5.5,1.8-7.4.8-1.9,1.8-3.2,2.9-3.9,1.2-.7,2.5-1.1,4.1-1.1,2.7,0,6.6,1.8,11.6,5.3,5,3.6,11.4,7.4,19.3,11.6,7.8,4.2,17.3,8.1,28.4,11.7,11.1,3.7,23.9,5.5,38.4,5.5s21-1.6,30.2-4.7c9.1-3.1,17-7.6,23.5-13.3,6.6-5.7,11.6-12.8,15.2-21.1,3.5-8.3,5.3-17.8,5.3-28.5s-2.5-21.3-7.4-29.4c-4.9-8.1-11.4-15.3-19.4-21.4-8-6.2-17.2-11.8-27.5-16.9-10.3-5.1-20.8-10.3-31.6-15.7-10.8-5.3-21.3-11.2-31.5-17.7-10.2-6.5-19.3-14.1-27.4-22.9-8-8.8-14.6-19-19.6-30.8-5-11.8-7.5-25.9-7.5-42.4s2.9-32,8.7-45.2c5.8-13.2,13.8-24.4,24.1-33.3,10.3-9,22.6-15.8,36.8-20.5,14.2-4.7,29.6-7,46.1-7s16.9.8,25.5,2.3c8.5,1.6,16.6,3.7,24.1,6.3,7.5,2.6,14.3,5.5,20.2,8.8,5.9,3.2,9.8,5.8,11.6,7.8,1.9,2,3.1,3.6,3.7,4.7.6,1.1,1.1,2.6,1.5,4.4.4,1.8.7,3.9.9,6.4.2,2.5.3,5.7.3,9.7s-.1,7.1-.4,10c-.3,2.9-.7,5.4-1.3,7.4-.6,2-1.4,3.4-2.5,4.4-1.1.9-2.3,1.4-3.7,1.4-2.2,0-5.5-1.5-10.2-4.4-4.6-2.9-10.3-6.2-16.9-9.9-6.7-3.6-14.6-7-23.7-10-9.1-3-19.4-4.5-30.7-4.5s-19.8,1.5-27.7,4.5c-7.8,3-14.3,7-19.4,12.1-5.1,5-8.9,11-11.5,17.8-2.6,6.9-3.8,14.2-3.8,21.9,0,11.3,2.5,21,7.4,29.1,4.9,8.1,11.4,15.3,19.6,21.6,8.1,6.3,17.4,12,27.8,17.2,10.4,5.2,21,10.5,31.8,15.8,10.8,5.3,21.4,11.2,31.8,17.5,10.4,6.4,19.7,13.9,27.8,22.5,8.1,8.7,14.7,18.9,19.7,30.7,5,11.8,7.5,25.7,7.5,41.8Z"/>
    <path class="st0" d="M4527,521.1c0,23-2.8,44.1-8.5,63.4-5.7,19.3-14.2,36-25.5,49.9-11.3,14-25.4,24.9-42.4,32.7-17,7.8-36.6,11.7-59,11.7s-40.8-3.4-56.9-10.3c-16.2-6.9-29.7-16.9-40.5-30.1-10.8-13.1-18.8-29.1-24.1-47.9-5.3-18.8-7.9-40.1-7.9-63.9s2.8-44.1,8.4-63.4c5.6-19.3,14-35.9,25.3-49.9,11.3-14,25.4-24.8,42.2-32.6,16.9-7.7,36.6-11.6,59.1-11.6s40.8,3.4,56.9,10.3c16.2,6.9,29.7,16.9,40.5,30.1,10.8,13.1,18.9,29.1,24.3,47.9,5.4,18.8,8.1,40,8.1,63.5ZM4476.6,524.5c0-15.2-1.3-29.6-4-43.2-2.7-13.6-7.1-25.5-13.2-35.7-6.1-10.2-14.5-18.3-24.9-24.3s-23.6-8.9-39.2-8.9-26.9,2.7-37.3,8.1c-10.4,5.4-19,13.1-25.7,23-6.7,9.9-11.7,21.7-15,35.2-3.3,13.6-4.9,28.4-4.9,44.5s1.3,30,4,43.5c2.7,13.6,7.1,25.4,13.4,35.5,6.2,10.1,14.6,18.2,25.1,24.1,10.5,5.9,23.6,8.9,39.2,8.9s26.6-2.7,37.1-8.1c10.5-5.4,19.1-13,25.8-22.9,6.7-9.8,11.7-21.5,14.8-35.1,3.2-13.6,4.8-28.5,4.8-44.8Z"/>
    <path class="st0" d="M4647,665.1c0,1.7-.4,3.1-1.2,4.2-.8,1.1-2.1,2.1-3.8,3-1.8.8-4.2,1.5-7.4,1.9-3.1.4-7.2.6-12.1.6s-8.6-.2-11.8-.6c-3.1-.4-5.6-1-7.5-1.9-1.9-.8-3.1-1.8-3.8-3-.7-1.1-1-2.6-1-4.2V246.9c0-1.7.3-3.1,1-4.4.7-1.3,2-2.3,3.8-3.1,1.9-.8,4.4-1.5,7.5-1.9,3.1-.4,7.1-.6,11.8-.6s8.9.2,12.1.6c3.1.4,5.6,1,7.4,1.9,1.8.8,3,1.9,3.8,3.1.8,1.3,1.2,2.7,1.2,4.4v418.2Z"/>
    <path class="st0" d="M4963.6,665.1c0,1.7-.3,3.1-1,4.2-.7,1.1-1.9,2.1-3.7,3-1.8.8-4.1,1.5-6.9,1.9-2.8.4-6.3.6-10.4.6s-8.2-.2-11-.6c-2.8-.4-5.1-1-6.8-1.9-1.7-.8-2.8-1.8-3.4-3-.6-1.1-.9-2.6-.9-4.2v-37.3c-15.1,17.7-30,30.7-44.7,38.8-14.7,8.1-29.6,12.2-44.7,12.2s-32.5-3.1-44.6-9.4c-12.1-6.3-21.8-14.8-29.3-25.5-7.5-10.7-12.8-23.3-16-37.6-3.2-14.3-4.9-31.7-4.9-52.1v-170.9c0-1.7.3-3.1,1-4.2.7-1.1,2-2.2,4-3.1,2-.9,4.5-1.6,7.7-1.9,3.1-.3,7.1-.5,11.8-.5s8.6.2,11.8.5c3.1.3,5.6.9,7.5,1.9,1.9.9,3.2,2,4,3.1.8,1.1,1.2,2.6,1.2,4.2v164c0,16.5,1.1,29.7,3.4,39.6,2.3,9.9,5.7,18.4,10.3,25.4,4.6,7,10.4,12.4,17.5,16.3,7.1,3.9,15.3,5.8,24.7,5.8s24.3-4.6,36.3-13.8c12.1-9.2,24.9-22.6,38.4-40.4v-196.9c0-1.7.3-3.1,1-4.2.7-1.1,2-2.2,4-3.1,2-.9,4.5-1.6,7.5-1.9,3-.3,7-.5,11.9-.5s8.6.2,11.8.5c3.1.3,5.6.9,7.4,1.9,1.8.9,3.1,2,4,3.1.9,1.1,1.3,2.6,1.3,4.2v281.7Z"/>
    <path class="st0" d="M5284.3,375.4c5.4,0,9.6,1.3,12.1,4.5,1.8,2.6,3,6.4,3,12.2v273.1c0,1.3-.6,3.2-1.2,3.8-.6,1.3-1.8,2.6-3.6,3.2-2.4.6-4.8,1.3-7.8,1.9-3,.6-6.6.6-11.5.6s-9,0-12.1-.6-5.4-1.3-7.2-1.9c-1.8-.6-3.6-1.9-4.2-3.2-.6-.6-1.2-2.6-1.2-3.8v-246.8h-136.8v156.4c0,19.9,3,34,8.4,44.2,4.8,9.6,15.1,14.7,28.9,14.7s8.4-.6,12.1-1.3c3.6-1.3,6.6-1.9,9-3.2,3-1.3,5.4-1.9,7.2-3.2,1.8-.6,3.6-1.3,5.4-1.3s1.8.6,2.4.6c1.2.6,1.8,1.9,2.4,3.2s.6,3.2,1.2,5.8c.6,2.6.6,5.8.6,9.6,0,6.4-.6,10.9-1.2,14.1-.6,3.8-1.8,6.4-3.6,8.3s-3.6,3.2-6.6,4.5c-3.6,1.3-7.2,2.6-10.8,3.8-4.2.6-8.4,1.9-13.3,2.6-4.2.6-9,.6-13.3.6-13.9,0-25.9-1.9-35.6-5.8s-18.1-9.6-24.1-17.3c-6-8.3-10.8-18-13.9-30.1-3-11.5-4.2-25.6-4.2-42.3v-164.1h-37.4c-3,0-5.4-1.9-7.2-5.1-1.2-3.2-2.4-9-2.4-16s0-7.7.6-10.3,1.2-5.1,1.8-7.1c1.2-1.3,2.4-2.6,3.6-3.2,1.2-1.3,2.4-1.3,4.2-1.3h36.8v-66.7c0-1.9.6-3.2,1.2-4.5.6-1.3,1.8-1.9,3.6-3.2,1.8-.6,4.2-1.3,7.8-1.9,3-.6,6.6-.6,11.5-.6s9,0,12.1.6c3.6.6,6,1.3,7.8,1.9,1.8,1.3,3,1.9,3.6,3.2.6,1.3,1.2,2.6,1.2,4.5v66.7h170.5ZM5304.8,288.2c0,12.2-2.4,20.5-6.6,25-4.2,3.8-12.1,6.4-23.5,6.4s-19.3-1.9-23.5-6.4c-4.2-4.5-6.6-12.2-6.6-24.4s2.4-20.5,6.6-25c4.2-4.5,12.1-6.4,24.1-6.4s19.3,1.9,23.5,6.4c4.2,4.5,6,12.2,6,24.4ZM5635.1,521c0,23.1-3,44.2-8.4,63.5-5.4,19.2-14.5,35.9-25.3,50-11.5,13.5-25.3,24.4-42.2,32.7-17.5,7.7-36.8,11.5-59.1,11.5s-41-3.2-57.3-10.3c-16.3-7.1-29.5-17.3-40.4-30.1-10.8-13.5-18.7-29.5-24.1-48.1-5.4-18.6-7.8-39.8-7.8-63.5s3-44.2,8.4-63.5c5.4-19.2,13.9-35.9,25.3-50,11.5-14.1,25.3-25,42.2-32.7,16.9-7.7,36.8-11.5,59.1-11.5s41,3.2,56.6,10.3c16.3,7.1,30.1,16.7,40.4,30.1,10.8,12.8,19.3,28.9,24.7,48.1,5.4,18.6,7.8,39.8,7.8,63.5ZM5584.5,524.2c0-15.4-1.2-29.5-4.2-43.6-2.4-13.5-6.6-25-12.7-35.3-6-10.3-14.5-18.6-25.3-24.4-10.2-5.8-22.9-9-38.6-9s-27.1,2.6-37.4,8.3c-10.2,5.1-18.7,12.8-25.3,23.1-6.6,9.6-11.5,21.2-15.1,35.3-3,13.5-4.8,28.2-4.8,44.2s1.2,30.1,4.2,43.6c2.4,13.5,6.6,25.6,13.3,35.3,6,10.3,14.5,18.6,24.7,24.4,10.2,5.8,23.5,9,39.2,9s26.5-2.6,36.8-8.3c10.2-5.1,19.3-12.8,25.9-22.4,6.6-10.3,11.5-21.8,14.5-35.3,3-13.5,4.8-28.9,4.8-44.9Z"/>
    <path class="st0" d="M5935,665.1c0,1.7-.4,3.1-1.2,4.2-.8,1.1-2.1,2.1-3.8,3-1.8.8-4.2,1.5-7.4,1.9-3.1.4-7.1.6-11.8.6s-8.9-.2-12.1-.6c-3.1-.4-5.6-1-7.4-1.9-1.8-.8-3-1.8-3.8-3-.8-1.1-1.2-2.6-1.2-4.2v-165c0-16.1-1.2-29-3.5-38.8-2.4-9.8-5.8-18.3-10.3-25.4-4.5-7.1-10.3-12.5-17.5-16.3-7.2-3.8-15.4-5.6-24.9-5.6s-24.3,4.6-36.5,13.8c-12.2,9.2-24.9,22.6-38.3,40.4v196.9c0,1.7-.4,3.1-1.2,4.2-.8,1.1-2.1,2.1-3.8,3-1.8.8-4.2,1.5-7.4,1.9-3.1.4-7.2.6-12.1.6s-8.6-.2-11.8-.6c-3.1-.4-5.6-1-7.5-1.9-1.9-.8-3.1-1.8-3.8-3-.7-1.1-1-2.6-1-4.2v-281.7c0-1.7.3-3.1.9-4.2.6-1.1,1.8-2.2,3.5-3.1,1.8-.9,4-1.6,6.8-1.9,2.7-.3,6.4-.5,10.9-.5s7.9.2,10.7.5c2.8.3,5,.9,6.6,1.9,1.6.9,2.7,2,3.4,3.1.7,1.1,1,2.6,1,4.2v37.3c14.9-17.7,29.8-30.7,44.6-39,14.8-8.2,29.8-12.4,44.9-12.4s32.5,3.2,44.6,9.5c12.1,6.4,21.8,14.9,29.3,25.5,7.5,10.6,12.8,23.1,16,37.4,3.2,14.3,4.9,31.5,4.9,51.5v171.9Z"/>
    <g>
      <path class="st0" d="M3104,1113c0,1.1-.3,2-.8,2.9-.5.8-1.4,1.5-2.7,1.9-1.3.5-3,.9-5.1,1.2-2.1.3-4.8.5-8,.5s-5.7-.2-7.9-.5c-2.2-.3-3.9-.7-5.2-1.2-1.3-.5-2.2-1.1-2.7-1.9-.5-.8-.8-1.8-.8-2.9v-253.9c0-1.1.3-2,.9-2.9s1.5-1.5,2.9-1.9c1.3-.5,3.1-.9,5.2-1.2,2.1-.3,4.6-.5,7.6-.5s5.9.2,8,.5c2.1.3,3.8.8,5.1,1.2,1.3.5,2.2,1.1,2.7,1.9.5.8.8,1.8.8,2.9v253.9Z"/>
      <path class="st0" d="M3315.4,1113.2c0,1.1-.3,2-.8,2.8-.5.8-1.3,1.4-2.5,1.9-1.2.5-2.8,1-4.8,1.2-2.1.3-4.6.4-7.7.4s-5.8-.1-7.9-.4c-2.1-.3-3.7-.7-4.8-1.2-1.2-.5-2-1.2-2.5-1.9-.5-.7-.8-1.7-.8-2.8v-107.7c0-10.5-.8-18.9-2.3-25.3-1.5-6.4-3.8-11.9-6.7-16.6-2.9-4.6-6.8-8.2-11.4-10.6-4.7-2.5-10.1-3.7-16.2-3.7s-15.9,3-23.8,9c-7.9,6-16.3,14.8-25,26.4v128.6c0,1.1-.3,2-.8,2.8-.5.8-1.3,1.4-2.5,1.9-1.2.5-2.8,1-4.8,1.2-2.1.3-4.7.4-7.9.4s-5.6-.1-7.7-.4c-2.1-.3-3.7-.7-4.9-1.2-1.2-.5-2.1-1.2-2.5-1.9-.5-.7-.7-1.7-.7-2.8v-184c0-1.1.2-2,.6-2.8.4-.7,1.2-1.4,2.3-2s2.6-1,4.4-1.2c1.8-.2,4.2-.3,7.1-.3s5.2.1,7,.3c1.9.2,3.3.6,4.3,1.2,1,.6,1.8,1.3,2.2,2,.4.8.7,1.7.7,2.8v24.3c9.7-11.6,19.4-20.1,29.1-25.4,9.7-5.4,19.4-8.1,29.3-8.1s21.2,2.1,29.1,6.2c7.9,4.2,14.2,9.7,19.1,16.7,4.9,7,8.4,15.1,10.5,24.4,2.1,9.3,3.2,20.5,3.2,33.6v112.2Z"/>
    </g>
    <path class="st0" d="M3459.5,1099.8c0,4-.3,7.1-.8,9.4-.5,2.3-1.3,4-2.3,5.1-1,1.1-2.6,2.1-4.6,3.1-2.1,1-4.4,1.7-7,2.4-2.6.6-5.4,1.1-8.4,1.5-2.9.4-5.9.6-8.8.6-9,0-16.7-1.3-23.1-3.8-6.4-2.5-11.7-6.3-15.8-11.4-4.1-5.1-7.1-11.6-8.9-19.4-1.9-7.8-2.8-17.1-2.8-27.7v-107.5h-24.2c-1.9,0-3.5-1.1-4.6-3.3-1.2-2.2-1.7-5.7-1.7-10.6s.2-4.8.5-6.5c.3-1.8.7-3.2,1.2-4.4.5-1.2,1.2-2,2-2.5.8-.5,1.8-.7,2.8-.7h24v-43.7c0-1,.2-1.8.7-2.7.4-.8,1.3-1.5,2.5-2.1,1.2-.6,2.8-1.1,4.9-1.3,2-.3,4.6-.4,7.7-.4s5.8.1,7.9.4c2,.3,3.7.7,4.8,1.3,1.2.6,2,1.3,2.5,2.1.5.8.8,1.7.8,2.7v43.7h44.4c1,0,1.9.2,2.7.7.8.5,1.4,1.3,2,2.5.6,1.2,1,2.6,1.2,4.4.3,1.8.4,4,.4,6.5,0,4.9-.6,8.5-1.7,10.6-1.2,2.2-2.7,3.3-4.6,3.3h-44.4v102.6c0,12.7,1.8,22.2,5.3,28.7,3.5,6.5,9.8,9.7,18.9,9.7s5.6-.3,7.9-.9c2.3-.6,4.4-1.3,6.1-1.9,1.8-.7,3.3-1.3,4.6-1.9,1.3-.6,2.4-.9,3.5-.9s1.2.2,1.8.5,1,1,1.3,1.9c.3,1,.6,2.2.9,3.9.3,1.6.4,3.7.4,6.1Z"/>
    <path class="st0" d="M3644.8,1013.3c0,5.3-1.3,9.1-3.8,11.3-2.5,2.3-5.4,3.4-8.6,3.4h-113.9c0,10.2,1,19.4,2.9,27.6,1.9,8.2,5.1,15.2,9.7,21.1,4.5,5.9,10.4,10.4,17.6,13.5,7.2,3.1,16,4.7,26.5,4.7s15.6-.7,22-2.1c6.4-1.4,12-3,16.7-4.8,4.7-1.8,8.6-3.4,11.6-4.8,3-1.4,5.3-2.1,6.9-2.1s1.7.2,2.4.7c.7.5,1.3,1.2,1.6,2.1.4,1,.7,2.3.9,4,.2,1.7.3,3.8.3,6.2s0,3.3-.2,4.6c-.1,1.3-.3,2.5-.5,3.5s-.5,1.9-1,2.8c-.5.8-1,1.6-1.7,2.4-.7.8-2.8,2-6.2,3.7-3.5,1.7-7.9,3.4-13.5,5-5.5,1.6-11.9,3.1-19.1,4.4-7.2,1.3-15,1.9-23.2,1.9-14.2,0-26.7-2.1-37.4-6.3-10.7-4.2-19.7-10.5-27-18.8-7.3-8.3-12.8-18.7-16.5-31.3-3.7-12.5-5.6-27.1-5.6-43.7s1.9-30,5.8-42.6c3.8-12.6,9.4-23.3,16.6-32.1,7.2-8.8,16-15.5,26.2-20.2,10.2-4.7,21.7-7.1,34.4-7.1s25.1,2.3,34.7,7c9.5,4.6,17.4,10.9,23.5,18.7,6.1,7.8,10.7,17,13.5,27.6,2.9,10.6,4.3,21.8,4.3,33.8v6.1ZM3612.9,1003.3c.4-17.7-3.3-31.6-11.1-41.7-7.8-10.1-19.4-15.1-34.7-15.1s-14.8,1.6-20.7,4.7c-5.9,3.1-10.9,7.3-14.9,12.5-4,5.2-7.1,11.2-9.3,18.1-2.2,6.9-3.4,14.1-3.7,21.6h94.3Z"/>
    <path class="st0" d="M3794,941.3c0,3,0,5.5-.2,7.6-.1,2-.4,3.6-.8,4.8s-.9,2-1.4,2.7c-.6.6-1.4.9-2.4.9s-2.3-.3-3.7-.9c-1.5-.6-3.1-1.2-5-1.8-1.9-.6-3.9-1.2-6.2-1.7-2.3-.5-4.8-.8-7.5-.8s-6.3.7-9.4,2c-3.1,1.4-6.3,3.6-9.7,6.7-3.4,3.1-7,7.3-10.7,12.5-3.7,5.2-7.8,11.5-12.3,19v121c0,1.1-.3,2-.8,2.8-.5.8-1.3,1.4-2.5,1.9-1.2.5-2.8,1-4.8,1.2-2.1.3-4.7.4-7.9.4s-5.6-.1-7.7-.4c-2.1-.3-3.7-.7-4.9-1.2-1.2-.5-2.1-1.2-2.5-1.9-.5-.7-.7-1.7-.7-2.8v-184c0-1.1.2-2,.6-2.8.4-.7,1.2-1.4,2.3-2s2.6-1,4.4-1.2c1.8-.2,4.2-.3,7.1-.3s5.2.1,7,.3c1.9.2,3.3.6,4.3,1.2,1,.6,1.8,1.3,2.2,2,.4.8.7,1.7.7,2.8v26.8c4.7-7.4,9.2-13.4,13.4-18,4.2-4.6,8.1-8.3,11.8-10.9,3.7-2.7,7.4-4.5,11-5.5,3.7-1,7.3-1.5,11-1.5s3.6.1,5.7.3,4.3.6,6.6,1.1c2.3.5,4.4,1.2,6.2,1.8,1.9.7,3.2,1.4,3.9,2,.8.7,1.3,1.3,1.5,1.9.3.6.5,1.4.7,2.3.2,1,.3,2.4.4,4.2,0,1.8,0,4.3,0,7.5Z"/>
    <path class="st0" d="M3865.5,867.1c0,7.9-1.4,13.3-4.2,16.2-2.8,2.9-8,4.3-15.6,4.3s-12.5-1.4-15.3-4.2c-2.8-2.8-4.1-8.1-4.1-15.8s1.4-13.3,4.2-16.1c2.8-2.9,8-4.3,15.6-4.3s12.5,1.4,15.3,4.2c2.8,2.8,4.1,8.1,4.1,15.8ZM3861.9,1113.2c0,1.1-.3,2-.8,2.8-.5.8-1.3,1.4-2.5,1.9-1.2.5-2.8,1-4.8,1.2-2,.3-4.7.4-7.9.4s-5.6-.1-7.7-.4c-2.1-.3-3.7-.7-4.9-1.2-1.2-.5-2-1.2-2.5-1.9-.5-.7-.7-1.7-.7-2.8v-184c0-1,.2-1.8.7-2.7.4-.8,1.3-1.5,2.5-2,1.2-.5,2.9-1,4.9-1.2,2-.3,4.6-.4,7.7-.4s5.8.1,7.9.4c2,.3,3.7.7,4.8,1.2,1.2.5,2,1.2,2.5,2,.5.8.8,1.7.8,2.7v184Z"/>
    <path class="st0" d="M4081.3,1019.2c0,15-1.9,28.8-5.6,41.4-3.7,12.6-9.3,23.5-16.6,32.6-7.4,9.1-16.6,16.2-27.7,21.4-11.1,5.1-23.9,7.7-38.5,7.7s-26.6-2.2-37.2-6.7c-10.6-4.5-19.4-11-26.4-19.6-7-8.6-12.3-19-15.8-31.3-3.5-12.3-5.2-26.2-5.2-41.7s1.8-28.8,5.5-41.4c3.7-12.6,9.2-23.5,16.5-32.6,7.4-9.1,16.6-16.2,27.6-21.3,11-5,23.9-7.6,38.6-7.6s26.6,2.2,37.2,6.7c10.6,4.5,19.4,11,26.4,19.6,7,8.6,12.3,19,15.9,31.3,3.5,12.3,5.3,26.1,5.3,41.5ZM4048.5,1021.5c0-9.9-.9-19.3-2.6-28.2-1.7-8.9-4.6-16.6-8.6-23.3-4-6.7-9.4-12-16.3-15.8-6.9-3.9-15.4-5.8-25.6-5.8s-17.5,1.8-24.3,5.3c-6.8,3.5-12.4,8.6-16.8,15-4.4,6.5-7.7,14.1-9.8,23-2.1,8.9-3.2,18.5-3.2,29s.9,19.6,2.6,28.4c1.7,8.9,4.7,16.6,8.7,23.2,4.1,6.6,9.5,11.9,16.4,15.7,6.9,3.9,15.4,5.8,25.6,5.8s17.4-1.8,24.2-5.3c6.9-3.5,12.5-8.5,16.9-14.9,4.4-6.4,7.6-14,9.7-22.9,2.1-8.9,3.1-18.6,3.1-29.2Z"/>
    <path class="st0" d="M4229.1,941.3c0,3,0,5.5-.2,7.6-.1,2-.4,3.6-.8,4.8s-.9,2-1.4,2.7c-.6.6-1.4.9-2.4.9s-2.3-.3-3.7-.9c-1.5-.6-3.1-1.2-5-1.8-1.9-.6-3.9-1.2-6.2-1.7-2.3-.5-4.8-.8-7.5-.8s-6.3.7-9.4,2c-3.1,1.4-6.3,3.6-9.7,6.7-3.4,3.1-7,7.3-10.7,12.5-3.7,5.2-7.8,11.5-12.3,19v121c0,1.1-.3,2-.8,2.8-.5.8-1.3,1.4-2.5,1.9-1.2.5-2.8,1-4.8,1.2-2,.3-4.7.4-7.9.4s-5.6-.1-7.7-.4c-2.1-.3-3.7-.7-4.9-1.2-1.2-.5-2-1.2-2.5-1.9-.5-.7-.7-1.7-.7-2.8v-184c0-1.1.2-2,.6-2.8.4-.7,1.2-1.4,2.3-2s2.6-1,4.4-1.2c1.8-.2,4.2-.3,7.1-.3s5.2.1,7,.3c1.9.2,3.3.6,4.3,1.2,1,.6,1.8,1.3,2.2,2,.4.8.7,1.7.7,2.8v26.8c4.7-7.4,9.2-13.4,13.4-18,4.2-4.6,8.1-8.3,11.8-10.9,3.7-2.7,7.4-4.5,11-5.5,3.7-1,7.3-1.5,11-1.5s3.6.1,5.7.3c2.1.2,4.3.6,6.6,1.1,2.3.5,4.4,1.2,6.2,1.8,1.9.7,3.2,1.4,3.9,2,.8.7,1.3,1.3,1.5,1.9.3.6.5,1.4.7,2.3.2,1,.3,2.4.4,4.2,0,1.8,0,4.3,0,7.5Z"/>
    <g>
      <path class="st0" d="M4345.5,1048.6c0-7.5,1-14.6,2.9-21.4,1.9-6.7,4.9-13.3,9-19.6,4.1-6.3,9.4-12.5,16-18.4,6.6-5.9,14.6-11.9,23.9-17.9-5.1-7.4-9.5-14-13.2-20-3.7-6-6.7-11.6-9-16.8-2.4-5.2-4.1-10.1-5.1-14.8-1-4.7-1.5-9.4-1.5-14.2,0-8.4,1.3-16.5,4-24.2,2.7-7.7,7-14.5,13-20.4,6-5.9,13.6-10.6,23-14.1,9.3-3.5,20.7-5.2,34-5.2s21,1.3,29.3,3.9c8.3,2.6,15.1,6.3,20.6,11,5.4,4.8,9.5,10.5,12.3,17.3,2.8,6.7,4.1,14.3,4.1,22.6s-1.2,15.4-3.7,22.1c-2.4,6.7-6.3,13.2-11.7,19.4-5.4,6.3-12.3,12.5-20.7,18.7-8.4,6.2-18.5,12.7-30.5,19.5,4.4,5.6,9.1,11.4,14.2,17.5,5.1,6.1,10.5,12.2,16,18.3,5.6,6.1,11.3,12.2,17.1,18.1,5.8,5.9,11.6,11.6,17.2,17.1,2.6-3.7,4.9-7.9,6.9-12.6,2-4.7,3.8-9.7,5.4-14.9,1.5-5.2,2.7-10.6,3.5-16,.8-5.4,1.2-11,1.2-16.6v-7.4c0-1.4.2-2.5.7-3.4.4-.9,1.2-1.6,2.2-2.2,1-.6,2.5-1.1,4.5-1.3,2-.3,4.6-.4,7.8-.4s5.2,0,7.2.2c2,.1,3.6.4,4.9.9,1.3.5,2.2,1.2,2.8,2.2.6,1,.9,2.4.9,4.2v5.1c0,7.6-.6,15.1-1.8,22.5-1.2,7.4-2.9,14.5-5,21.6-2.1,7-4.7,13.7-7.9,20.1-3.1,6.4-6.6,12.3-10.5,17.8,5.8,4.9,10.8,9,15.1,12.3,4.3,3.3,7.9,5.9,11,8,3,2,5.5,3.5,7.5,4.3,2,.8,3.6,1.2,4.9,1.2s2.5,0,3.7-.2c1.2-.1,2.1,0,2.8.6.7.5,1.2,1.6,1.6,3.3s.6,4.2.6,7.6,0,6.1-.2,8.2c-.1,2-.4,3.6-.7,4.6-.3,1-.9,1.9-1.6,2.6-.8.7-2.2,1.3-4.2,1.8-2.1.5-4.7.8-8.1.8s-5.4-.5-8.5-1.4c-3.1-1-6.7-2.6-10.8-5-4.1-2.4-8.9-5.6-14.3-9.7-5.4-4.1-11.8-9.3-19.1-15.5-5.4,4.6-11,8.9-17,12.9-6,4-12.3,7.3-19,10.1-6.7,2.8-13.8,5-21.1,6.5-7.4,1.6-15.3,2.4-23.9,2.4s-15.7-.8-23-2.3c-7.2-1.5-13.9-3.6-20.1-6.4-6.1-2.8-11.7-6.3-16.5-10.5-4.9-4.2-9-9-12.4-14.4-3.4-5.4-6-11.4-7.9-18.1-1.9-6.7-2.8-13.9-2.8-21.7ZM4379.9,1045.2c0,7.1,1.1,13.6,3.4,19.4,2.2,5.9,5.5,10.9,9.9,15.2,4.4,4.3,9.8,7.6,16.3,10,6.5,2.4,14.1,3.6,22.7,3.6s10.4-.6,15.4-1.7c5-1.2,9.8-2.7,14.3-4.7,4.5-2,8.9-4.4,13-7.2,4.1-2.8,7.9-5.8,11.3-8.9-6.7-6.1-13.3-12.5-19.9-19.1-6.6-6.6-13-13.3-19.1-19.9-6.1-6.7-12.1-13.3-17.8-19.9-5.7-6.6-10.9-13-15.7-19.3-6.4,4.4-11.8,8.7-16,13-4.3,4.3-7.8,8.6-10.4,12.9-2.6,4.3-4.5,8.6-5.7,13-1.2,4.4-1.7,8.9-1.7,13.7ZM4402.2,902.9c0,3.7.5,7.4,1.4,11.2,1,3.8,2.4,7.8,4.4,12,2,4.2,4.4,8.6,7.3,13.4,2.9,4.8,6.3,10.1,10.3,15.9,9.3-5.6,17.2-10.7,23.5-15.4,6.3-4.7,11.4-9.2,15.3-13.6,3.8-4.4,6.6-8.7,8.4-13.1,1.7-4.4,2.6-9,2.6-13.9s-.7-7.7-2-11.3c-1.3-3.6-3.5-6.8-6.4-9.6-2.9-2.8-6.7-5-11.1-6.6-4.5-1.6-9.9-2.5-16.1-2.5s-12.5.9-17.2,2.8c-4.7,1.8-8.5,4.3-11.5,7.4-3,3.1-5.2,6.6-6.6,10.7-1.4,4.1-2.1,8.3-2.1,12.7Z"/>
      <path class="st0" d="M4853.6,1103.8c0,2.5-.1,4.6-.4,6.4-.3,1.8-.7,3.4-1.3,4.6-.6,1.2-1.4,2.1-2.2,2.7-.8.5-1.8.8-2.8.8h-119.3c-2.9,0-5.7-1.1-8.4-3.2-2.6-2.1-3.9-5.8-3.9-11.1v-235.9c0-5.3,1.3-9,3.9-11.1,2.6-2.1,5.4-3.2,8.4-3.2h118c1,0,2,.3,2.8.8.8.5,1.5,1.4,2,2.7.5,1.2.9,2.8,1.2,4.6.3,1.8.5,4.1.5,6.8s-.2,4.6-.5,6.4c-.3,1.8-.7,3.3-1.2,4.5-.5,1.2-1.2,2-2,2.6-.8.5-1.8.8-2.8.8h-97.2v83h83.4c1,0,2,.3,2.8.9.8.6,1.5,1.5,2.1,2.6.6,1.1,1,2.6,1.3,4.5.3,1.9.4,4.2.4,6.7s-.1,4.6-.4,6.3c-.3,1.8-.7,3.2-1.3,4.3-.6,1.1-1.3,1.9-2.1,2.4-.8.5-1.8.7-2.8.7h-83.4v94.6h98.6c1,0,2,.3,2.8.8.8.5,1.6,1.4,2.2,2.6.6,1.2,1.1,2.7,1.3,4.5.3,1.8.4,4.1.4,6.8Z"/>
    </g>
    <path class="st0" d="M5034.7,1109.4c1,1.9,1.5,3.5,1.5,4.8s-.6,2.3-1.8,3.2c-1.2.8-3.1,1.4-5.6,1.7-2.5.3-5.7.5-9.7.5s-6.9-.1-9.1-.3c-2.2-.2-4-.5-5.4-1-1.3-.5-2.4-1.1-3.1-1.8-.7-.7-1.3-1.6-1.8-2.6l-41.5-73-41.3,73c-.5,1-1.1,1.8-1.8,2.6-.7.8-1.7,1.4-3.1,1.8-1.3.5-3.1.8-5.3,1-2.2.2-5.1.3-8.6.3s-6.8-.2-9.1-.5c-2.4-.3-4.1-.9-5.2-1.7-1.1-.8-1.6-1.9-1.5-3.2,0-1.3.7-2.9,1.8-4.8l53.8-89.7-50.9-86.5c-1-1.9-1.6-3.5-1.6-4.8,0-1.3.5-2.4,1.7-3.3,1.2-.9,3.1-1.5,5.6-1.7,2.5-.3,5.8-.4,9.9-.4s6.7.1,8.9.3c2.2.2,4,.5,5.3.9,1.3.4,2.2,1,2.9,1.6.6.7,1.2,1.5,1.7,2.5l39.4,68.5,40-68.5c.5-.8,1.1-1.6,1.7-2.2.6-.7,1.5-1.3,2.6-1.7,1.1-.5,2.6-.8,4.6-1,2-.2,4.7-.3,8.2-.3s6.8.1,9.1.4c2.4.3,4.1.8,5.3,1.5,1.2.8,1.7,1.8,1.5,3.2-.1,1.4-.8,3.1-1.9,5.1l-50.5,85.4,53.4,90.8Z"/>
    <path class="st0" d="M5165.2,1099.8c0,4-.3,7.1-.8,9.4-.5,2.3-1.3,4-2.3,5.1-1,1.1-2.6,2.1-4.6,3.1-2.1,1-4.4,1.7-7,2.4-2.6.6-5.4,1.1-8.4,1.5-2.9.4-5.9.6-8.8.6-9,0-16.7-1.3-23.1-3.8-6.4-2.5-11.7-6.3-15.8-11.4-4.1-5.1-7.1-11.6-8.9-19.4-1.9-7.8-2.8-17.1-2.8-27.7v-107.5h-24.2c-1.9,0-3.5-1.1-4.6-3.3-1.2-2.2-1.7-5.7-1.7-10.6s.2-4.8.5-6.5c.3-1.8.7-3.2,1.2-4.4.5-1.2,1.2-2,2-2.5.8-.5,1.8-.7,2.8-.7h24v-43.7c0-1,.2-1.8.7-2.7.4-.8,1.3-1.5,2.5-2.1,1.2-.6,2.9-1.1,4.9-1.3,2-.3,4.6-.4,7.7-.4s5.8.1,7.9.4c2,.3,3.7.7,4.8,1.3,1.2.6,2,1.3,2.5,2.1.5.8.8,1.7.8,2.7v43.7h44.4c1,0,1.9.2,2.7.7.8.5,1.4,1.3,2,2.5.6,1.2,1,2.6,1.2,4.4.3,1.8.4,4,.4,6.5,0,4.9-.6,8.5-1.7,10.6-1.2,2.2-2.7,3.3-4.6,3.3h-44.4v102.6c0,12.7,1.8,22.2,5.3,28.7,3.5,6.5,9.8,9.7,18.9,9.7s5.6-.3,7.9-.9c2.3-.6,4.4-1.3,6.1-1.9,1.8-.7,3.3-1.3,4.6-1.9,1.3-.6,2.4-.9,3.5-.9s1.2.2,1.8.5,1,1,1.3,1.9c.3,1,.6,2.2.9,3.9.3,1.6.4,3.7.4,6.1Z"/>
    <path class="st0" d="M5350.4,1013.3c0,5.3-1.3,9.1-3.8,11.3-2.5,2.3-5.4,3.4-8.6,3.4h-113.9c0,10.2,1,19.4,2.9,27.6,1.9,8.2,5.1,15.2,9.7,21.1,4.5,5.9,10.4,10.4,17.6,13.5,7.2,3.1,16,4.7,26.5,4.7s15.6-.7,22-2.1c6.4-1.4,12-3,16.7-4.8,4.7-1.8,8.6-3.4,11.6-4.8,3-1.4,5.3-2.1,6.9-2.1s1.7.2,2.4.7c.7.5,1.3,1.2,1.6,2.1.4,1,.7,2.3.9,4,.2,1.7.3,3.8.3,6.2s0,3.3-.2,4.6c-.1,1.3-.3,2.5-.5,3.5s-.5,1.9-1,2.8c-.5.8-1,1.6-1.7,2.4-.7.8-2.8,2-6.2,3.7-3.5,1.7-7.9,3.4-13.5,5-5.5,1.6-11.9,3.1-19.1,4.4-7.2,1.3-15,1.9-23.2,1.9-14.2,0-26.7-2.1-37.4-6.3-10.7-4.2-19.7-10.5-27-18.8-7.3-8.3-12.8-18.7-16.5-31.3-3.7-12.5-5.6-27.1-5.6-43.7s1.9-30,5.8-42.6c3.8-12.6,9.4-23.3,16.6-32.1,7.2-8.8,16-15.5,26.2-20.2,10.2-4.7,21.7-7.1,34.4-7.1s25.1,2.3,34.7,7c9.5,4.6,17.4,10.9,23.5,18.7,6.1,7.8,10.7,17,13.5,27.6,2.9,10.6,4.3,21.8,4.3,33.8v6.1ZM5318.5,1003.3c.4-17.7-3.3-31.6-11.1-41.7-7.8-10.1-19.4-15.1-34.7-15.1s-14.8,1.6-20.7,4.7c-5.9,3.1-10.9,7.3-14.9,12.5-4,5.2-7.1,11.2-9.3,18.1-2.2,6.9-3.4,14.1-3.7,21.6h94.3Z"/>
    <path class="st0" d="M5499.7,941.3c0,3,0,5.5-.2,7.6-.1,2-.4,3.6-.8,4.8s-.9,2-1.4,2.7c-.6.6-1.4.9-2.4.9s-2.3-.3-3.7-.9c-1.5-.6-3.1-1.2-5-1.8-1.9-.6-3.9-1.2-6.2-1.7-2.3-.5-4.8-.8-7.5-.8s-6.3.7-9.4,2c-3.1,1.4-6.3,3.6-9.7,6.7-3.4,3.1-7,7.3-10.7,12.5-3.7,5.2-7.8,11.5-12.3,19v121c0,1.1-.3,2-.8,2.8-.5.8-1.3,1.4-2.5,1.9-1.2.5-2.8,1-4.8,1.2-2,.3-4.7.4-7.9.4s-5.6-.1-7.7-.4c-2.1-.3-3.7-.7-4.9-1.2-1.2-.5-2-1.2-2.5-1.9-.5-.7-.7-1.7-.7-2.8v-184c0-1.1.2-2,.6-2.8.4-.7,1.2-1.4,2.3-2s2.6-1,4.4-1.2c1.8-.2,4.2-.3,7.1-.3s5.2.1,7,.3c1.9.2,3.3.6,4.3,1.2,1,.6,1.8,1.3,2.2,2,.4.8.7,1.7.7,2.8v26.8c4.7-7.4,9.2-13.4,13.4-18,4.2-4.6,8.1-8.3,11.8-10.9,3.7-2.7,7.4-4.5,11-5.5,3.7-1,7.3-1.5,11-1.5s3.6.1,5.7.3c2.1.2,4.3.6,6.6,1.1,2.3.5,4.4,1.2,6.2,1.8,1.9.7,3.2,1.4,3.9,2,.8.7,1.3,1.3,1.5,1.9.3.6.5,1.4.7,2.3.2,1,.3,2.4.4,4.2,0,1.8,0,4.3,0,7.5Z"/>
    <path class="st0" d="M5571.2,867.1c0,7.9-1.4,13.3-4.2,16.2-2.8,2.9-8,4.3-15.6,4.3s-12.5-1.4-15.3-4.2c-2.8-2.8-4.1-8.1-4.1-15.8s1.4-13.3,4.2-16.1c2.8-2.9,8-4.3,15.6-4.3s12.5,1.4,15.3,4.2c2.8,2.8,4.1,8.1,4.1,15.8ZM5567.5,1113.2c0,1.1-.3,2-.8,2.8-.5.8-1.3,1.4-2.5,1.9-1.2.5-2.8,1-4.8,1.2-2,.3-4.7.4-7.9.4s-5.6-.1-7.7-.4c-2.1-.3-3.7-.7-4.9-1.2-1.2-.5-2-1.2-2.5-1.9-.5-.7-.7-1.7-.7-2.8v-184c0-1,.2-1.8.7-2.7.4-.8,1.3-1.5,2.5-2,1.2-.5,2.9-1,4.9-1.2,2-.3,4.6-.4,7.7-.4s5.8.1,7.9.4c2,.3,3.7.7,4.8,1.2,1.2.5,2,1.2,2.5,2,.5.8.8,1.7.8,2.7v184Z"/>
    <path class="st0" d="M5787,1019.2c0,15-1.9,28.8-5.6,41.4-3.7,12.6-9.3,23.5-16.6,32.6-7.4,9.1-16.6,16.2-27.7,21.4-11.1,5.1-23.9,7.7-38.5,7.7s-26.6-2.2-37.2-6.7c-10.6-4.5-19.4-11-26.4-19.6-7-8.6-12.3-19-15.8-31.3-3.5-12.3-5.2-26.2-5.2-41.7s1.8-28.8,5.5-41.4c3.7-12.6,9.2-23.5,16.5-32.6,7.4-9.1,16.6-16.2,27.6-21.3,11-5,23.9-7.6,38.6-7.6s26.6,2.2,37.2,6.7c10.6,4.5,19.4,11,26.4,19.6,7,8.6,12.3,19,15.9,31.3,3.5,12.3,5.3,26.1,5.3,41.5ZM5754.1,1021.5c0-9.9-.9-19.3-2.6-28.2-1.7-8.9-4.6-16.6-8.6-23.3-4-6.7-9.4-12-16.3-15.8-6.9-3.9-15.4-5.8-25.6-5.8s-17.5,1.8-24.3,5.3c-6.8,3.5-12.4,8.6-16.8,15-4.4,6.5-7.7,14.1-9.8,23-2.1,8.9-3.2,18.5-3.2,29s.9,19.6,2.6,28.4c1.7,8.9,4.7,16.6,8.7,23.2,4.1,6.6,9.5,11.9,16.4,15.7,6.9,3.9,15.4,5.8,25.6,5.8s17.4-1.8,24.2-5.3c6.9-3.5,12.5-8.5,16.9-14.9,4.4-6.4,7.6-14,9.7-22.9,2.1-8.9,3.1-18.6,3.1-29.2Z"/>
    <path class="st0" d="M5934.7,941.3c0,3,0,5.5-.2,7.6-.1,2-.4,3.6-.8,4.8s-.9,2-1.4,2.7c-.6.6-1.4.9-2.4.9s-2.3-.3-3.7-.9c-1.5-.6-3.1-1.2-5-1.8-1.9-.6-3.9-1.2-6.2-1.7-2.3-.5-4.8-.8-7.5-.8s-6.3.7-9.4,2c-3.1,1.4-6.3,3.6-9.7,6.7-3.4,3.1-7,7.3-10.7,12.5-3.7,5.2-7.8,11.5-12.3,19v121c0,1.1-.3,2-.8,2.8-.5.8-1.3,1.4-2.5,1.9-1.2.5-2.8,1-4.8,1.2-2,.3-4.7.4-7.9.4s-5.6-.1-7.7-.4c-2.1-.3-3.7-.7-4.9-1.2-1.2-.5-2-1.2-2.5-1.9-.5-.7-.7-1.7-.7-2.8v-184c0-1.1.2-2,.6-2.8.4-.7,1.2-1.4,2.3-2s2.6-1,4.4-1.2c1.8-.2,4.2-.3,7.1-.3s5.2.1,7,.3c1.9.2,3.3.6,4.3,1.2,1,.6,1.8,1.3,2.2,2,.4.8.7,1.7.7,2.8v26.8c4.7-7.4,9.2-13.4,13.4-18,4.2-4.6,8.1-8.3,11.8-10.9,3.7-2.7,7.4-4.5,11-5.5,3.7-1,7.3-1.5,11-1.5s3.6.1,5.7.3c2.1.2,4.3.6,6.6,1.1,2.3.5,4.4,1.2,6.2,1.8,1.9.7,3.2,1.4,3.9,2,.8.7,1.3,1.3,1.5,1.9.3.6.5,1.4.7,2.3.2,1,.3,2.4.4,4.2,0,1.8,0,4.3,0,7.5Z"/>
  </g>
  <g>
    <path class="st1" d="M436.6,854l289.2-.8c-.7-21.4-30-84.2-45.3-97.8-35.2-7.4-150-3.6-192.2-2.8,2.5-15.7,139.1-304.2,149.8-316.4,13.6,16.8,32.6,63.2,43.7,85.9l254.6,536.4c16.3,23.4,80,17.9,113.8,13.6.3-21.7-306.2-654.9-363.1-776.1-23.9-50.8-68.1-62.6-93.1-9.7-70.3,148.6-141.1,294.5-211.1,443.8-24.4,52.1-196.4,425.8-212.6,440.6l-66.5,1.3-.4-1068.4,1068.4-1.6,1,1068.7-780.5,1.6c-10.3,27.1-39.4,72-43.3,101,77.2-.2,836.4,4.7,871.2-2.7,54.4-11.6,53.4-61.6,53.3-120.7l.3-1045.2c.3-59.9-10.5-98.3-71.3-102.9-52.2-4-119.7-.2-173.6-.3H153.2c-56.6,0-114.1-10.6-140.6,33.2C-7.7,68.4,2.6,917.3,2.6,1074.6s-6.1,135.4,9.7,164.5c23.9,44.2,87.4,33.9,141,33.9,103.9,0,83.5,6.1,170-179.3,31.6-67.6,89.8-181.5,113.4-239.8"/>
    <path class="st0" d="M431,1110.4c0,5.4-.9,10.3-2.8,14.5-1.9,4.2-4.5,7.8-7.8,10.8-3.3,3-7.3,5.2-11.8,6.7-4.5,1.5-9.4,2.2-14.6,2.2s-7-.3-10.1-1c-3.1-.7-5.9-1.5-8.3-2.4-2.4-1-4.5-1.9-6.1-3-1.7-1-2.8-1.9-3.5-2.6-.6-.7-1.1-1.6-1.4-2.7-.3-1.1-.5-2.6-.5-4.4s0-2.4.2-3.3c.1-.9.3-1.6.5-2.1.2-.5.5-.9.8-1.1.3-.2.7-.3,1.2-.3.8,0,1.9.5,3.3,1.5,1.4,1,3.3,2.1,5.5,3.3,2.2,1.2,5,2.3,8.1,3.4,3.2,1,6.8,1.6,11,1.6s6-.4,8.6-1.3c2.6-.9,4.9-2.2,6.7-3.8,1.9-1.6,3.3-3.7,4.3-6,1-2.4,1.5-5.1,1.5-8.1s-.7-6.1-2.1-8.4c-1.4-2.3-3.3-4.4-5.6-6.1-2.3-1.8-4.9-3.4-7.9-4.8-2.9-1.5-6-3-9-4.5-3.1-1.5-6.1-3.2-9-5.1-2.9-1.8-5.5-4-7.8-6.5-2.3-2.5-4.2-5.4-5.6-8.8-1.4-3.4-2.1-7.4-2.1-12.1s.8-9.1,2.5-12.9c1.7-3.8,4-7,6.9-9.5,2.9-2.6,6.5-4.5,10.5-5.9,4.1-1.3,8.5-2,13.2-2s4.8.2,7.3.7c2.4.4,4.7,1,6.9,1.8,2.2.7,4.1,1.6,5.8,2.5,1.7.9,2.8,1.7,3.3,2.2.5.6.9,1,1.1,1.3s.3.7.4,1.3c.1.5.2,1.1.3,1.8,0,.7,0,1.6,0,2.8s0,2-.1,2.9c0,.8-.2,1.5-.4,2.1-.2.6-.4,1-.7,1.3-.3.3-.7.4-1.1.4-.6,0-1.6-.4-2.9-1.3-1.3-.8-2.9-1.8-4.8-2.8-1.9-1-4.2-2-6.8-2.9-2.6-.9-5.5-1.3-8.8-1.3s-5.7.4-7.9,1.3c-2.2.9-4.1,2-5.6,3.4-1.5,1.4-2.6,3.1-3.3,5.1-.7,2-1.1,4.1-1.1,6.3,0,3.2.7,6,2.1,8.3,1.4,2.3,3.3,4.4,5.6,6.2,2.3,1.8,5,3.4,8,4.9,3,1.5,6,3,9.1,4.5,3.1,1.5,6.1,3.2,9.1,5,3,1.8,5.6,4,8,6.4,2.3,2.5,4.2,5.4,5.6,8.8,1.4,3.4,2.1,7.4,2.1,12Z"/>
    <path class="st0" d="M520.6,1099.5c0,6.6-.8,12.6-2.4,18.1-1.6,5.5-4.1,10.3-7.3,14.3-3.2,4-7.3,7.1-12.1,9.4-4.9,2.2-10.5,3.4-16.9,3.4s-11.7-1-16.3-3c-4.6-2-8.5-4.8-11.6-8.6-3.1-3.8-5.4-8.3-6.9-13.7-1.5-5.4-2.3-11.5-2.3-18.3s.8-12.6,2.4-18.1c1.6-5.5,4-10.3,7.2-14.3,3.2-4,7.3-7.1,12.1-9.3,4.8-2.2,10.5-3.3,16.9-3.3s11.7,1,16.3,3c4.6,2,8.5,4.8,11.6,8.6,3.1,3.8,5.4,8.3,6.9,13.7,1.5,5.4,2.3,11.4,2.3,18.2ZM506.2,1100.5c0-4.4-.4-8.5-1.1-12.4-.8-3.9-2-7.3-3.8-10.2-1.8-2.9-4.1-5.2-7.1-6.9s-6.7-2.6-11.2-2.6-7.7.8-10.7,2.3c-3,1.6-5.4,3.7-7.3,6.6-1.9,2.8-3.4,6.2-4.3,10.1-.9,3.9-1.4,8.1-1.4,12.7s.4,8.6,1.1,12.4c.8,3.9,2,7.3,3.8,10.2,1.8,2.9,4.2,5.2,7.2,6.9,3,1.7,6.7,2.6,11.2,2.6s7.6-.8,10.6-2.3c3-1.6,5.5-3.7,7.4-6.5s3.3-6.1,4.2-10c.9-3.9,1.4-8.1,1.4-12.8Z"/>
    <path class="st0" d="M554.9,1140.7c0,.5-.1.9-.3,1.2-.2.3-.6.6-1.1.9-.5.2-1.2.4-2.1.5-.9.1-2,.2-3.5.2s-2.5,0-3.4-.2c-.9-.1-1.6-.3-2.1-.5-.5-.2-.9-.5-1.1-.9-.2-.3-.3-.7-.3-1.2v-119.6c0-.5,0-.9.3-1.3.2-.4.6-.7,1.1-.9.5-.2,1.2-.4,2.1-.5.9-.1,2-.2,3.4-.2s2.6,0,3.5.2c.9.1,1.6.3,2.1.5.5.2.9.5,1.1.9.2.4.3.8.3,1.3v119.6Z"/>
    <path class="st0" d="M645.5,1140.7c0,.5,0,.9-.3,1.2-.2.3-.5.6-1.1.9-.5.2-1.2.4-2,.5-.8.1-1.8.2-3,.2s-2.3,0-3.2-.2c-.8-.1-1.5-.3-1.9-.5-.5-.2-.8-.5-1-.9s-.3-.7-.3-1.2v-10.7c-4.3,5.1-8.6,8.8-12.8,11.1-4.2,2.3-8.5,3.5-12.8,3.5s-9.3-.9-12.8-2.7c-3.5-1.8-6.2-4.2-8.4-7.3-2.1-3.1-3.7-6.7-4.6-10.7-.9-4.1-1.4-9.1-1.4-14.9v-48.9c0-.5,0-.9.3-1.2.2-.3.6-.6,1.1-.9.6-.3,1.3-.4,2.2-.5.9,0,2-.1,3.4-.1s2.5,0,3.4.1c.9,0,1.6.3,2.1.5.5.3.9.6,1.1.9.2.3.3.7.3,1.2v46.9c0,4.7.3,8.5,1,11.3.6,2.8,1.6,5.3,2.9,7.3,1.3,2,3,3.6,5,4.7,2,1.1,4.4,1.7,7.1,1.7s6.9-1.3,10.4-3.9c3.5-2.6,7.1-6.5,11-11.5v-56.3c0-.5,0-.9.3-1.2.2-.3.6-.6,1.1-.9.6-.3,1.3-.4,2.1-.5.9,0,2-.1,3.4-.1s2.5,0,3.4.1c.9,0,1.6.3,2.1.5s.9.6,1.1.9c.3.3.4.7.4,1.2v80.6Z"/>
    <path class="st0" d="M737.2,1057.8c1.6,0,2.8.4,3.4,1.3.5.7.9,1.8.9,3.5v78.1c0,.4-.2.9-.3,1.1-.2.4-.5.7-1,.9-.7.2-1.4.4-2.2.6s-1.9.2-3.3.2-2.6,0-3.4-.2-1.6-.4-2.1-.6c-.5-.2-1-.6-1.2-.9-.2-.2-.3-.7-.3-1.1v-70.6h-39.1v44.7c0,5.7.9,9.7,2.4,12.7,1.4,2.8,4.3,4.2,8.3,4.2s2.4-.2,3.4-.4c1-.4,1.9-.6,2.6-.9.9-.4,1.6-.6,2.1-.9.5-.2,1-.4,1.6-.4s.5.2.7.2c.3.2.5.6.7.9.2.4.2.9.3,1.7s.2,1.7.2,2.8c0,1.8-.2,3.1-.3,4-.2,1.1-.5,1.8-1,2.4-.3.4-1,.9-1.9,1.3-1,.4-2.1.7-3.1,1.1-1.2.2-2.4.6-3.8.7-1.2.2-2.6.2-3.8.2-4,0-7.4-.6-10.2-1.7-2.8-1.1-5.2-2.8-6.9-5-1.7-2.4-3.1-5.1-4-8.6-.9-3.3-1.2-7.3-1.2-12.1v-46.9h-10.7c-.9,0-1.6-.6-2.1-1.5-.3-.9-.7-2.6-.7-4.6s0-2.2.2-2.9.3-1.5.5-2c.3-.4.7-.7,1-.9.3-.4.7-.4,1.2-.4h10.5v-19.1c0-.6.2-.9.3-1.3.2-.4.5-.6,1-.9.5-.2,1.2-.4,2.2-.6.9-.2,1.9-.2,3.3-.2s2.6,0,3.4.2c1,.2,1.7.4,2.2.6.5.4.9.6,1,.9.2.4.3.7.3,1.3v19.1h48.8ZM743.1,1032.9c0,3.5-.7,5.9-1.9,7.2-1.2,1.1-3.4,1.8-6.7,1.8s-5.5-.6-6.7-1.8c-1.2-1.3-1.9-3.5-1.9-7s.7-5.9,1.9-7.2,3.4-1.8,6.9-1.8,5.5.6,6.7,1.8,1.7,3.5,1.7,7ZM837.5,1099.4c0,6.6-.9,12.7-2.4,18.2s-4.1,10.3-7.2,14.3c-3.3,3.9-7.2,7-12.1,9.4-5,2.2-10.5,3.3-16.9,3.3s-11.7-.9-16.4-2.9c-4.7-2-8.4-5-11.5-8.6-3.1-3.9-5.3-8.4-6.9-13.8-1.6-5.3-2.2-11.4-2.2-18.2s.9-12.7,2.4-18.2c1.6-5.5,4-10.3,7.2-14.3,3.3-4,7.2-7.2,12.1-9.4s10.5-3.3,16.9-3.3,11.7.9,16.2,2.9c4.7,2,8.6,4.8,11.5,8.6,3.1,3.7,5.5,8.3,7.1,13.8,1.6,5.3,2.2,11.4,2.2,18.2ZM823.1,1100.4c0-4.4-.3-8.4-1.2-12.5-.7-3.9-1.9-7.2-3.6-10.1s-4.1-5.3-7.2-7c-2.9-1.7-6.5-2.6-11-2.6s-7.8.7-10.7,2.4c-2.9,1.5-5.3,3.7-7.2,6.6-1.9,2.8-3.3,6.1-4.3,10.1-.9,3.9-1.4,8.1-1.4,12.7s.3,8.6,1.2,12.5c.7,3.9,1.9,7.3,3.8,10.1,1.7,2.9,4.1,5.3,7.1,7,2.9,1.7,6.7,2.6,11.2,2.6s7.6-.7,10.5-2.4c2.9-1.5,5.5-3.7,7.4-6.4,1.9-2.9,3.3-6.2,4.1-10.1s1.4-8.3,1.4-12.8Z"/>
    <path class="st0" d="M923.3,1140.7c0,.5-.1.9-.3,1.2-.2.3-.6.6-1.1.9-.5.2-1.2.4-2.1.5-.9.1-2,.2-3.4.2s-2.6,0-3.5-.2c-.9-.1-1.6-.3-2.1-.5-.5-.2-.9-.5-1.1-.9-.2-.3-.3-.7-.3-1.2v-47.2c0-4.6-.3-8.3-1-11.1-.7-2.8-1.7-5.2-2.9-7.3-1.3-2-3-3.6-5-4.7-2-1.1-4.4-1.6-7.1-1.6s-7,1.3-10.4,3.9c-3.5,2.6-7.1,6.5-10.9,11.6v56.3c0,.5-.1.9-.3,1.2-.2.3-.6.6-1.1.9-.5.2-1.2.4-2.1.5-.9.1-2,.2-3.5.2s-2.5,0-3.4-.2c-.9-.1-1.6-.3-2.1-.5-.5-.2-.9-.5-1.1-.9-.2-.3-.3-.7-.3-1.2v-80.6c0-.5,0-.9.3-1.2.2-.3.5-.6,1-.9s1.1-.4,1.9-.5c.8,0,1.8-.1,3.1-.1s2.3,0,3.1.1c.8,0,1.4.3,1.9.5.4.3.8.6,1,.9.2.3.3.7.3,1.2v10.7c4.3-5.1,8.5-8.8,12.8-11.1,4.2-2.4,8.5-3.5,12.8-3.5s9.3.9,12.8,2.7c3.5,1.8,6.2,4.3,8.4,7.3,2.1,3,3.7,6.6,4.6,10.7s1.4,9,1.4,14.7v49.2Z"/>
    <text class="st2" transform="translate(935.8 1142.9) scale(1 1.1)"><tspan x="0" y="0"> </tspan></text>
  </g>
</svg>